@startuml mietvertragRechnung
skinparam dpi 300
hide empty description

state Mietvertrag {
[*] --> ungültig : neuer Mietvertrag
ungültig --> unterschrieben
unterschrieben --> gültig
gültig --> gekündet
gekündet --> [*]
}

state Rechnung {
state "nicht freigegeben" as nf
[*] --> nf : neue Rechnung
nf --> freigegeben : freigabe
state nichtBezahlt as "nicht bezahlt"
freigegeben --> nichtBezahlt
nichtBezahlt --> storniert : storno
nichtBezahlt --> bezahlt : zahlungseingang verbuchen
bezahlt -->[*]
storniert -->[*]
}
@enduml